<svg width="1419" height="643" xmlns="http://www.w3.org/2000/svg" xmlns:xlink="http://www.w3.org/1999/xlink" overflow="hidden"><defs><clipPath id="clip0"><rect x="-45" y="8" width="1419" height="643"/></clipPath></defs><g clip-path="url(#clip0)" transform="translate(45 -8)"><rect x="280.5" y="110.5" width="82" height="51" stroke="#000000" stroke-width="3" stroke-miterlimit="8" fill="#8FAADC"/><text font-family="Microsoft YaHei,Microsoft YaHei_MSFontService,sans-serif" font-weight="400" font-size="24" transform="translate(300.552 144)">Key</text><rect x="362.5" y="110.5" width="214" height="51" stroke="#000000" stroke-width="3" stroke-miterlimit="8" fill="#8FAADC"/><text font-family="Microsoft YaHei,Microsoft YaHei_MSFontService,sans-serif" font-weight="400" font-size="24" transform="translate(411.216 144)">Operation</text><rect x="280.5" y="161.5" width="82" height="50" stroke="#000000" stroke-width="3" stroke-miterlimit="8" fill="#8FAADC"/><text font-family="Microsoft YaHei,Microsoft YaHei_MSFontService,sans-serif" font-weight="400" font-size="24" transform="translate(300.552 195)">Key</text><rect x="362.5" y="161.5" width="214" height="50" stroke="#000000" stroke-width="3" stroke-miterlimit="8" fill="#8FAADC"/><text font-family="Microsoft YaHei,Microsoft YaHei_MSFontService,sans-serif" font-weight="400" font-size="24" transform="translate(411.216 195)">Operation</text><rect x="280.5" y="211.5" width="82" height="51" stroke="#000000" stroke-width="3" stroke-miterlimit="8" fill="#8FAADC"/><text font-family="Microsoft YaHei,Microsoft YaHei_MSFontService,sans-serif" font-weight="400" font-size="24" transform="translate(300.552 245)">Key</text><rect x="362.5" y="211.5" width="214" height="51" stroke="#000000" stroke-width="3" stroke-miterlimit="8" fill="#8FAADC"/><text font-family="Microsoft YaHei,Microsoft YaHei_MSFontService,sans-serif" font-weight="400" font-size="24" transform="translate(411.216 245)">Operation</text><rect x="280.5" y="262.5" width="296" height="51" stroke="#000000" stroke-width="3" stroke-miterlimit="8" fill="#8FAADC"/><text font-family="Microsoft YaHei,Microsoft YaHei_MSFontService,sans-serif" font-weight="400" font-size="24" transform="translate(418.382 296)">…</text><rect x="827.5" y="111.5" width="110" height="51" stroke="#000000" stroke-width="3" stroke-miterlimit="8" fill="#8FAADC"/><text font-family="Microsoft YaHei,Microsoft YaHei_MSFontService,sans-serif" font-weight="400" font-size="24" transform="translate(842.138 145)">Key A1</text><rect x="937.5" y="111.5" width="214" height="51" stroke="#000000" stroke-width="3" stroke-miterlimit="8" fill="#8FAADC"/><text font-family="Microsoft YaHei,Microsoft YaHei_MSFontService,sans-serif" font-weight="400" font-size="24" transform="translate(1001.9 145)">Value 1</text><rect x="827.5" y="162.5" width="110" height="50" stroke="#000000" stroke-width="3" stroke-miterlimit="8" fill="#8FAADC"/><text font-family="Microsoft YaHei,Microsoft YaHei_MSFontService,sans-serif" font-weight="400" font-size="24" transform="translate(842.138 196)">Key A2</text><rect x="937.5" y="162.5" width="214" height="50" stroke="#000000" stroke-width="3" stroke-miterlimit="8" fill="#8FAADC"/><text font-family="Microsoft YaHei,Microsoft YaHei_MSFontService,sans-serif" font-weight="400" font-size="24" transform="translate(1001.9 196)">Value 2</text><rect x="827.5" y="212.5" width="324" height="51" stroke="#000000" stroke-width="3" stroke-miterlimit="8" fill="#8FAADC"/><text font-family="Microsoft YaHei,Microsoft YaHei_MSFontService,sans-serif" font-weight="400" font-size="24" transform="translate(978.968 246)">…</text><path d="M645 210 741 210 741 214 645 214ZM739 206 751 212 739 218Z"/><text font-family="Microsoft YaHei,Microsoft YaHei_MSFontService,sans-serif" font-weight="400" font-size="24" transform="translate(946.552 44)">KV files<tspan x="-625.253" y="-1">Operation log </tspan><tspan x="-457.419" y="-1">f</tspan>iles<tspan x="-301.237" y="146">Compact</tspan></text><rect x="-41.5001" y="181.5" width="82.0001" height="51" stroke="#000000" stroke-width="3" stroke-miterlimit="8" fill="#F4B183"/><text font-family="Microsoft YaHei,Microsoft YaHei_MSFontService,sans-serif" font-weight="400" font-size="24" transform="translate(-21.6379 215)">Key</text><rect x="39.5001" y="181.5" width="168" height="51" stroke="#000000" stroke-width="3" stroke-miterlimit="8" fill="#F4B183"/><text font-family="Microsoft YaHei,Microsoft YaHei_MSFontService,sans-serif" font-weight="400" font-size="24" transform="translate(64.4624 215)">Operation<tspan x="-28.3782" y="-78">Request</tspan></text><rect x="280.5" y="351.5" width="82" height="51" stroke="#000000" stroke-width="3" stroke-miterlimit="8" fill="#8FAADC"/><text font-family="Microsoft YaHei,Microsoft YaHei_MSFontService,sans-serif" font-weight="400" font-size="24" transform="translate(300.552 385)">Key</text><rect x="362.5" y="351.5" width="214" height="51" stroke="#000000" stroke-width="3" stroke-miterlimit="8" fill="#8FAADC"/><text font-family="Microsoft YaHei,Microsoft YaHei_MSFontService,sans-serif" font-weight="400" font-size="24" transform="translate(411.216 385)">Operation</text><rect x="280.5" y="402.5" width="82" height="51" stroke="#000000" stroke-width="3" stroke-miterlimit="8" fill="#8FAADC"/><text font-family="Microsoft YaHei,Microsoft YaHei_MSFontService,sans-serif" font-weight="400" font-size="24" transform="translate(300.552 436)">Key</text><rect x="362.5" y="402.5" width="214" height="51" stroke="#000000" stroke-width="3" stroke-miterlimit="8" fill="#8FAADC"/><text font-family="Microsoft YaHei,Microsoft YaHei_MSFontService,sans-serif" font-weight="400" font-size="24" transform="translate(411.216 436)">Operation</text><rect x="280.5" y="453.5" width="296" height="51" stroke="#000000" stroke-width="3" stroke-miterlimit="8" fill="#8FAADC"/><text font-family="Microsoft YaHei,Microsoft YaHei_MSFontService,sans-serif" font-weight="400" font-size="24" transform="translate(418.382 487)">…</text><rect x="827.5" y="352.5" width="110" height="51" stroke="#000000" stroke-width="3" stroke-miterlimit="8" fill="#8FAADC"/><text font-family="Microsoft YaHei,Microsoft YaHei_MSFontService,sans-serif" font-weight="400" font-size="24" transform="translate(843.055 386)">Key B1</text><rect x="937.5" y="352.5" width="214" height="51" stroke="#000000" stroke-width="3" stroke-miterlimit="8" fill="#8FAADC"/><text font-family="Microsoft YaHei,Microsoft YaHei_MSFontService,sans-serif" font-weight="400" font-size="24" transform="translate(1001.9 386)">Value 1</text><rect x="827.5" y="403.5" width="110" height="51" stroke="#000000" stroke-width="3" stroke-miterlimit="8" fill="#8FAADC"/><text font-family="Microsoft YaHei,Microsoft YaHei_MSFontService,sans-serif" font-weight="400" font-size="24" transform="translate(843.055 437)">Key B2</text><rect x="937.5" y="403.5" width="214" height="51" stroke="#000000" stroke-width="3" stroke-miterlimit="8" fill="#8FAADC"/><text font-family="Microsoft YaHei,Microsoft YaHei_MSFontService,sans-serif" font-weight="400" font-size="24" transform="translate(1001.9 437)">Value 2</text><rect x="827.5" y="454.5" width="324" height="51" stroke="#000000" stroke-width="3" stroke-miterlimit="8" fill="#8FAADC"/><text font-family="Microsoft YaHei,Microsoft YaHei_MSFontService,sans-serif" font-weight="400" font-size="24" transform="translate(978.968 488)">…</text><path d="M645 432 741 432 741 436 645 436ZM739 428 751 434 739 440Z"/><text font-family="Microsoft YaHei,Microsoft YaHei_MSFontService,sans-serif" font-weight="400" font-size="24" transform="translate(645.315 412)">Compact</text><rect x="790.5" y="76.5001" width="398" height="573" stroke="#000000" stroke-width="1.33333" stroke-miterlimit="8" stroke-dasharray="10.6667 4" fill="none"/><rect x="246.5" y="78.5001" width="360" height="571" stroke="#000000" stroke-width="1.33333" stroke-miterlimit="8" stroke-dasharray="10.6667 4" fill="none"/><text font-family="Microsoft YaHei,Microsoft YaHei_MSFontService,sans-serif" font-weight="400" font-size="24" transform="translate(1265.85 195)">Map<tspan x="59.3334" y="0">A</tspan><tspan x="0.916626" y="241">Map</tspan><tspan x="60.25" y="241">B</tspan></text><path d="M-19 264-21.3381 264-19.3381 262-19.3381 479.184-21.3381 477.184 190.324 477.184 190.324 481.184-23.3381 481.184-23.3381 260-19 260ZM188.325 473.184 200.325 479.184 188.325 485.184Z"/><text font-family="Microsoft YaHei,Microsoft YaHei_MSFontService,sans-serif" font-weight="400" font-size="24" transform="translate(9.74903 292)">Hash of Key is B<tspan x="-1.1452" y="153">Batch</tspan><tspan x="69.8481" y="153">a</tspan>ppend to<tspan font-family="Bahnschrift,Bahnschrift_MSFontService,sans-serif" font-weight="300" font-stretch="semi-condensed" font-size="72" x="397.554" y="296">…</tspan><tspan font-family="Bahnschrift,Bahnschrift_MSFontService,sans-serif" font-weight="300" font-stretch="semi-condensed" font-size="72" x="960.219" y="296">…</tspan><tspan x="70.8393" y="295">Map</tspan><tspan x="63.0926" y="324">Phase</tspan><tspan x="645.878" y="293">Reduce</tspan><tspan x="654.264" y="322">Phase</tspan></text></g></svg>